<svg xmlns="http://www.w3.org/2000/svg" viewBox="0 0 64 64" role="img" aria-label="Radio Tower">
	<defs>
		<linearGradient id="bg" x1="9" y1="5" x2="55" y2="59" gradientUnits="userSpaceOnUse">
			<stop offset="0" stop-color="#30d86f"/>
			<stop offset="0.32" stop-color="#26cb67"/>
			<stop offset="0.68" stop-color="#1cb25a"/>
			<stop offset="1" stop-color="#128746"/>
		</linearGradient>
		<radialGradient id="shine" cx="0.26" cy="0.16" r="0.92">
			<stop offset="0" stop-color="#ffffff" stop-opacity="0.42"/>
			<stop offset="0.45" stop-color="#ffffff" stop-opacity="0.08"/>
			<stop offset="1" stop-color="#ffffff" stop-opacity="0"/>
		</radialGradient>
	</defs>

	<rect x="0" y="0" width="64" height="64" rx="18" fill="url(#bg)"/>
	<rect x="0" y="0" width="64" height="64" rx="18" fill="url(#shine)"/>
	<rect x="0.5" y="0.5" width="63" height="63" rx="17.5" fill="none" stroke="#ffffff" stroke-opacity="0.15"/>

	<g fill="none" stroke="#d6f1e2" stroke-linecap="round" opacity="0.86">
		<path d="M15.5 17.5C10.8 23.5 10.8 34.5 15.5 40.5" stroke-width="3.3"/>
		<path d="M48.5 17.5C53.2 23.5 53.2 34.5 48.5 40.5" stroke-width="3.3"/>
	</g>

	<g fill="none" stroke="#f2fff8" stroke-linecap="round" opacity="0.95">
		<path d="M22.5 21.8C19.4 25.7 19.4 32.3 22.5 36.2" stroke-width="4.6"/>
		<path d="M41.5 21.8C44.6 25.7 44.6 32.3 41.5 36.2" stroke-width="4.6"/>
	</g>

	<g fill="none" stroke="#0a6b37" stroke-linecap="round" stroke-linejoin="round" opacity="0.32">
		<circle cx="32" cy="22.7" r="4.1" stroke-width="3.6"/>
		<path d="M25.2 51L32 27.4L38.8 51" stroke-width="4.6"/>
		<path d="M27.6 41H36.4" stroke-width="4.2"/>
	</g>

	<g fill="none" stroke="#ffffff" stroke-linecap="round" stroke-linejoin="round">
		<circle cx="32" cy="21.5" r="4.1" stroke-width="3.6"/>
		<path d="M25.2 49.8L32 26.2L38.8 49.8" stroke-width="4.6"/>
		<path d="M27.6 39.8H36.4" stroke-width="4.2"/>
	</g>
</svg>